<svg width="14" height="15" viewBox="0 0 14 15" fill="none" xmlns="http://www.w3.org/2000/svg">
<g id="vuesax/linear/sms-edit">
<g id="sms-edit">
<path id="Vector" d="M6.99996 12.4583H4.08329C2.33329 12.4583 1.16663 11.5833 1.16663 9.54163V5.45829C1.16663 3.41663 2.33329 2.54163 4.08329 2.54163H9.91663C11.6666 2.54163 12.8333 3.41663 12.8333 5.45829V7.20829" stroke="white" stroke-miterlimit="10" stroke-linecap="round" stroke-linejoin="round"/>
<path id="Vector_2" d="M9.91671 5.75L8.09087 7.20833C7.49004 7.68667 6.5042 7.68667 5.90337 7.20833L4.08337 5.75" stroke="white" stroke-miterlimit="10" stroke-linecap="round" stroke-linejoin="round"/>
<g id="Group">
<path id="Vector_3" d="M11.2059 9.11587L9.1409 11.1809C9.05924 11.2625 8.98339 11.4142 8.96589 11.525L8.85506 12.3125C8.81423 12.5984 9.01256 12.7967 9.2984 12.7559L10.0859 12.645C10.1967 12.6275 10.3542 12.5517 10.4301 12.47L12.4951 10.4051C12.8509 10.0492 13.0201 9.63505 12.4951 9.11005C11.9759 8.59088 11.5617 8.76004 11.2059 9.11587Z" stroke="white" stroke-width="0.5" stroke-miterlimit="10" stroke-linecap="round" stroke-linejoin="round"/>
<path id="Vector_4" d="M10.9084 9.41333C11.0834 10.0433 11.5734 10.5333 12.2034 10.7083" stroke="white" stroke-width="0.5" stroke-miterlimit="10" stroke-linecap="round" stroke-linejoin="round"/>
</g>
</g>
</g>
</svg>
